<?xml version="1.0" encoding="iso-8859-1"?>
<!-- Uploaded to: SVG Repo, www.svgrepo.com, Generator: SVG Repo Mixer Tools -->
<svg version="1.1" id="Layer_1" xmlns="http://www.w3.org/2000/svg" xmlns:xlink="http://www.w3.org/1999/xlink" 
	 viewBox="0 0 512 512" xml:space="preserve">
<polygon style="fill:#FDB51E;" points="504.082,226.969 504.082,501.443 50.144,501.443 50.144,226.969 145.155,226.969 "/>
<polygon style="fill:#FFD311;" points="145.155,121.402 145.155,174.186 145.155,226.969 50.144,226.969 50.144,501.443 
	7.918,501.443 7.918,121.402 7.918,84.454 60.701,31.67 145.155,31.67 "/>
<g>
	<polygon style="fill:#AFB6BB;" points="504.082,58.062 504.082,63.34 451.299,63.34 451.299,10.557 456.577,10.557 	"/>
	<polygon style="fill:#AFB6BB;" points="451.299,63.34 451.299,10.557 145.155,10.557 145.155,31.67 145.155,121.402 
		145.155,226.969 504.082,226.969 504.082,63.34 	"/>
</g>
<rect x="50.144" y="380.041" style="fill:#FFC416;" width="453.938" height="121.402"/>
<polygon style="fill:#FDB51E;" points="145.155,31.67 60.701,31.67 7.918,84.454 7.918,121.402 145.155,121.402 "/>
<g>
	<rect x="171.546" y="39.588" style="fill:#FFFFFF;" width="131.959" height="15.835"/>
	<rect x="171.546" y="71.258" style="fill:#FFFFFF;" width="26.392" height="15.835"/>
	<rect x="213.773" y="71.258" style="fill:#FFFFFF;" width="26.392" height="15.835"/>
	<rect x="277.113" y="71.258" style="fill:#FFFFFF;" width="26.392" height="15.835"/>
</g>
<path d="M459.856,2.639H137.237v21.113H57.422L0,81.175v428.186h512V54.783L459.856,2.639z M490.247,55.423h-31.03v-31.03
	L490.247,55.423z M15.835,493.526V87.733L63.98,39.588h73.257v73.897H50.144v15.835h87.093v89.732h-95.01v274.474H15.835z
	 M496.165,493.526H58.062V234.887h438.103V493.526z M153.072,219.052V18.474h290.309v52.784h52.784v147.794H153.072z"/>
<g>
	<rect x="171.546" y="124.041" style="fill:#FFFFFF;" width="200.577" height="15.835"/>
	<rect x="171.546" y="166.268" style="fill:#FFFFFF;" width="306.144" height="15.835"/>
	<rect x="81.814" y="451.299" style="fill:#FFFFFF;" width="390.598" height="15.835"/>
	<polygon style="fill:#FFFFFF;" points="100.289,295.588 84.454,295.588 84.454,261.278 124.041,261.278 124.041,277.113 
		100.289,277.113 	"/>
	<polygon style="fill:#FFFFFF;" points="469.773,295.588 453.938,295.588 453.938,277.113 430.186,277.113 430.186,261.278 
		469.773,261.278 	"/>
</g>
</svg>